<?xml version="1.0" standalone="no"?>
<!DOCTYPE svg PUBLIC "-//W3C//DTD SVG 20010904//EN"
 "http://www.w3.org/TR/2001/REC-SVG-20010904/DTD/svg10.dtd">
<svg version="1.0" xmlns="http://www.w3.org/2000/svg"
 width="95.000000pt" height="81.000000pt" viewBox="0 0 95.000000 81.000000"
 preserveAspectRatio="xMidYMid meet">
<metadata>
Created by potrace 1.10, written by Peter Selinger 2001-2011
</metadata>
<g transform="translate(0.000000,81.000000) scale(0.100000,-0.100000)"
fill="#000000" stroke="none">
<path d="M287 680 c-71 -56 -93 -210 -31 -210 21 0 17 17 -6 23 -28 7 -26 51
5 114 58 115 78 95 72 -75 l-4 -123 -56 -50 c-66 -59 -97 -105 -97 -147 0 -36
12 -46 45 -38 34 9 76 68 101 145 19 55 28 69 56 83 31 15 33 15 36 -3 4 -25
29 -24 37 2 l7 21 22 -21 c20 -19 24 -19 44 -5 21 14 22 14 22 -10 0 -35 18
-33 22 2 4 33 43 43 62 16 12 -15 16 -13 39 27 17 27 27 37 27 26 0 -21 31
-20 38 1 2 7 -2 10 -12 6 -11 -4 -16 -1 -16 10 0 26 -19 18 -41 -17 -20 -31
-21 -31 -15 -5 8 34 -11 48 -20 14 -7 -31 -64 -44 -64 -14 0 10 -4 18 -10 18
-5 0 -10 -8 -10 -18 0 -23 -35 -56 -49 -47 -6 3 -11 15 -11 25 0 31 -18 32
-34 3 -8 -15 -15 -23 -16 -18 0 21 31 54 45 49 8 -4 15 -1 15 5 0 20 -38 12
-57 -12 -15 -20 -81 -53 -88 -45 -1 2 2 37 7 78 12 93 3 172 -21 194 -17 15
-20 15 -44 -4z m2 -376 c-33 -89 -109 -155 -109 -95 0 37 110 174 127 158 2
-3 -6 -31 -18 -63z"/>
<path d="M736 435 c2 -65 17 -89 45 -74 18 9 49 58 49 76 0 4 -16 -10 -35 -32
l-34 -40 -1 63 c0 44 -4 62 -13 62 -9 0 -13 -15 -11 -55z"/>
</g>
</svg>
